{
  "accessors": [
    {
      "bufferView": 2,
      "componentType": 5126,
      "count": 596,
      "max": [
        59.703125,
        27.546875,
        53.953125
      ],
      "min": [
        -43.21875,
        -35.875,
        -51.390625
      ],
      "type": "VEC3"
    },
    {
      "bufferView": 2,
      "byteOffset": 7152,
      "componentType": 5126,
      "count": 596,
      "max": [
        0.9967973232269287,
        0.9972686767578125,
        0.9988989233970642
      ],
      "min": [
        -0.9997538328170776,
        -0.9981040358543396,
        -0.9996588230133057
      ],
      "type": "VEC3"
    },
    {
      "bufferView": 1,
      "componentType": 5126,
      "count": 596,
      "max": [
        0.9994999766349792,
        0.9994999766349792
      ],
      "min": [
        0.010200000368058681,
        0.000500023365020752
      ],
      "type": "VEC2"
    },
    {
      "bufferView": 1,
      "byteOffset": 4768,
      "componentType": 5126,
      "count": 596,
      "max": [
        0.9994999766349792,
        0.9994999766349792
      ],
      "min": [
        0.010200000368058681,
        0.000500023365020752
      ],
      "type": "VEC2"
    },
    {
      "bufferView": 0,
      "componentType": 5125,
      "count": 1647,
      "type": "SCALAR"
    },
    {
      "bufferView": 2,
      "byteOffset": 14304,
      "componentType": 5126,
      "count": 114,
      "max": [
        74.46875,
        56.140625,
        83.53125
      ],
      "min": [
        -102.40625,
        -48.140625,
        44.046875
      ],
      "type": "VEC3"
    },
    {
      "bufferView": 2,
      "byteOffset": 15672,
      "componentType": 5126,
      "count": 114,
      "max": [
        0.9998298287391663,
        0.9635012745857239,
        0.915420413017273
      ],
      "min": [
        -0.8860846161842346,
        -0.8978931307792664,
        -0.9351400136947632
      ],
      "type": "VEC3"
    },
    {
      "bufferView": 1,
      "byteOffset": 9536,
      "componentType": 5126,
      "count": 114,
      "max": [
        0.9912999868392944,
        0.9919999837875366
      ],
      "min": [
        0.00989999994635582,
        0.00830000638961792
      ],
      "type": "VEC2"
    },
    {
      "bufferView": 1,
      "byteOffset": 10448,
      "componentType": 5126,
      "count": 114,
      "max": [
        0.9912999868392944,
        0.9919999837875366
      ],
      "min": [
        0.00989999994635582,
        0.00830000638961792
      ],
      "type": "VEC2"
    },
    {
      "bufferView": 0,
      "byteOffset": 6588,
      "componentType": 5125,
      "count": 276,
      "type": "SCALAR"
    },
    {
      "bufferView": 2,
      "byteOffset": 17040,
      "componentType": 5126,
      "count": 41,
      "max": [
        59.703125,
        25.5625,
        52.0625
      ],
      "min": [
        52.5,
        -18.828125,
        9.84375
      ],
      "type": "VEC3"
    },
    {
      "bufferView": 2,
      "byteOffset": 17532,
      "componentType": 5126,
      "count": 41,
      "max": [
        0.9998288154602051,
        0.7049432396888733,
        0.6233522891998291
      ],
      "min": [
        0.7092637419700623,
        -0.6782548427581787,
        -0.6417970061302185
      ],
      "type": "VEC3"
    },
    {
      "bufferView": 1,
      "byteOffset": 11360,
      "componentType": 5126,
      "count": 41,
      "max": [
        0.9531000256538391,
        0.9643999934196472
      ],
      "min": [
        0.04479999840259552,
        0.03789997100830078
      ],
      "type": "VEC2"
    },
    {
      "bufferView": 1,
      "byteOffset": 11688,
      "componentType": 5126,
      "count": 41,
      "max": [
        0.9531000256538391,
        0.9643999934196472
      ],
      "min": [
        0.04479999840259552,
        0.03789997100830078
      ],
      "type": "VEC2"
    },
    {
      "bufferView": 0,
      "byteOffset": 7692,
      "componentType": 5125,
      "count": 210,
      "type": "SCALAR"
    },
    {
      "bufferView": 2,
      "byteOffset": 18024,
      "componentType": 5126,
      "count": 28,
      "max": [
        37.359375,
        26.09375,
        87.4375
      ],
      "min": [
        18.359375,
        -18.765625,
        78.0625
      ],
      "type": "VEC3"
    },
    {
      "bufferView": 2,
      "byteOffset": 18360,
      "componentType": 5126,
      "count": 28,
      "max": [
        0.9840865731239319,
        0.7867603302001953,
        0.9712266325950623
      ],
      "min": [
        -0.9967193007469177,
        -0.7306545972824097,
        -0.012280566617846489
      ],
      "type": "VEC3"
    },
    {
      "bufferView": 1,
      "byteOffset": 12016,
      "componentType": 5126,
      "count": 28,
      "max": [
        0.9815000295639038,
        0.9837999939918518
      ],
      "min": [
        0.8300999999046326,
        0.7245000004768372
      ],
      "type": "VEC2"
    },
    {
      "bufferView": 1,
      "byteOffset": 12240,
      "componentType": 5126,
      "count": 28,
      "max": [
        0.9815000295639038,
        0.9837999939918518
      ],
      "min": [
        0.8300999999046326,
        0.7245000004768372
      ],
      "type": "VEC2"
    },
    {
      "bufferView": 0,
      "byteOffset": 8532,
      "componentType": 5125,
      "count": 66,
      "type": "SCALAR"
    },
    {
      "bufferView": 2,
      "byteOffset": 18696,
      "componentType": 5126,
      "count": 28,
      "max": [
        37.359375,
        26.09375,
        -75.5
      ],
      "min": [
        18.359375,
        -18.765625,
        -84.875
      ],
      "type": "VEC3"
    },
    {
      "bufferView": 2,
      "byteOffset": 19032,
      "componentType": 5126,
      "count": 28,
      "max": [
        0.9837833046913147,
        0.7867553234100342,
        0.00010903678776230663
      ],
      "min": [
        -0.9967208504676819,
        -0.730639636516571,
        -0.9660012125968933
      ],
      "type": "VEC3"
    },
    {
      "bufferView": 1,
      "byteOffset": 12464,
      "componentType": 5126,
      "count": 28,
      "max": [
        0.9815000295639038,
        0.9837999939918518
      ],
      "min": [
        0.8300999999046326,
        0.7245000004768372
      ],
      "type": "VEC2"
    },
    {
      "bufferView": 1,
      "byteOffset": 12688,
      "componentType": 5126,
      "count": 28,
      "max": [
        0.9815000295639038,
        0.9837999939918518
      ],
      "min": [
        0.8300999999046326,
        0.7245000004768372
      ],
      "type": "VEC2"
    },
    {
      "bufferView": 0,
      "byteOffset": 8796,
      "componentType": 5125,
      "count": 66,
      "type": "SCALAR"
    },
    {
      "bufferView": 2,
      "byteOffset": 19368,
      "componentType": 5126,
      "count": 111,
      "max": [
        74.46875,
        56.140625,
        -41.46875
      ],
      "min": [
        -102.40625,
        -48.140625,
        -80.953125
      ],
      "type": "VEC3"
    },
    {
      "bufferView": 2,
      "byteOffset": 20700,
      "componentType": 5126,
      "count": 111,
      "max": [
        0.9998297691345215,
        0.9634937047958374,
        0.9396032094955444
      ],
      "min": [
        -0.8904408812522888,
        -0.8979013562202454,
        -0.9110696911811829
      ],
      "type": "VEC3"
    },
    {
      "bufferView": 1,
      "byteOffset": 12912,
      "componentType": 5126,
      "count": 111,
      "max": [
        0.9912999868392944,
        0.9919999837875366
      ],
      "min": [
        0.00989999994635582,
        0.00830000638961792
      ],
      "type": "VEC2"
    },
    {
      "bufferView": 1,
      "byteOffset": 13800,
      "componentType": 5126,
      "count": 111,
      "max": [
        0.9912999868392944,
        0.9919999837875366
      ],
      "min": [
        0.00989999994635582,
        0.00830000638961792
      ],
      "type": "VEC2"
    },
    {
      "bufferView": 0,
      "byteOffset": 9060,
      "componentType": 5125,
      "count": 276,
      "type": "SCALAR"
    }
  ],
  "asset": {
    "extras": {
      "author": "jay2307 (https://sketchfab.com/jay2307)",
      "license": "CC-BY-4.0 (http://creativecommons.org/licenses/by/4.0/)",
      "source": "https://sketchfab.com/3d-models/tie-bomber-8951f092e9f5413e88408e3b3e4c40f0",
      "title": "TIE Bomber"
    },
    "generator": "Sketchfab-12.95.1",
    "version": "2.0"
  },
  "bufferViews": [
    {
      "buffer": 0,
      "byteLength": 10164,
      "name": "floatBufferViews",
      "target": 34963
    },
    {
      "buffer": 0,
      "byteLength": 14688,
      "byteOffset": 10164,
      "byteStride": 8,
      "name": "floatBufferViews",
      "target": 34962
    },
    {
      "buffer": 0,
      "byteLength": 22032,
      "byteOffset": 24852,
      "byteStride": 12,
      "name": "floatBufferViews",
      "target": 34962
    }
  ],
  "buffers": [
    {
      "byteLength": 46884,
      "uri": "scene.bin"
    }
  ],
  "images": [
    {
      "uri": "textures/modelsmap_objectsshipstie_bomber.grid_baseColor.jpeg"
    },
    {
      "uri": "textures/modelsmap_objectsshipstie_bomber_wing2.grid_baseColor.jpeg"
    },
    {
      "uri": "textures/modelsmap_objectsshipstie_bomber_window.grid_baseColor.jpeg"
    }
  ],
  "materials": [
    {
      "emissiveFactor": [
        1.0,
        1.0,
        1.0
      ],
      "emissiveTexture": {
        "index": 0
      },
      "name": "modelsmap_objectsshipstie_bomber.grid",
      "pbrMetallicRoughness": {
        "baseColorTexture": {
          "index": 0
        },
        "metallicFactor": 0.0,
        "roughnessFactor": 0.9999
      }
    },
    {
      "emissiveFactor": [
        1.0,
        1.0,
        1.0
      ],
      "emissiveTexture": {
        "index": 1
      },
      "name": "modelsmap_objectsshipstie_bomber_wing2.grid",
      "pbrMetallicRoughness": {
        "baseColorTexture": {
          "index": 1
        },
        "metallicFactor": 0.0,
        "roughnessFactor": 0.9999
      }
    },
    {
      "emissiveFactor": [
        1.0,
        1.0,
        1.0
      ],
      "emissiveTexture": {
        "index": 2
      },
      "name": "modelsmap_objectsshipstie_bomber_window.grid",
      "pbrMetallicRoughness": {
        "baseColorTexture": {
          "index": 2
        },
        "metallicFactor": 0.0,
        "roughnessFactor": 0.9999
      }
    }
  ],
  "meshes": [
    {
      "name": "Object_0",
      "primitives": [
        {
          "attributes": {
            "NORMAL": 1,
            "POSITION": 0,
            "TEXCOORD_0": 2,
            "TEXCOORD_1": 3
          },
          "indices": 4,
          "material": 0,
          "mode": 4
        }
      ]
    },
    {
      "name": "Object_1",
      "primitives": [
        {
          "attributes": {
            "NORMAL": 6,
            "POSITION": 5,
            "TEXCOORD_0": 7,
            "TEXCOORD_1": 8
          },
          "indices": 9,
          "material": 1,
          "mode": 4
        }
      ]
    },
    {
      "name": "Object_2",
      "primitives": [
        {
          "attributes": {
            "NORMAL": 11,
            "POSITION": 10,
            "TEXCOORD_0": 12,
            "TEXCOORD_1": 13
          },
          "indices": 14,
          "material": 2,
          "mode": 4
        }
      ]
    },
    {
      "name": "Object_3",
      "primitives": [
        {
          "attributes": {
            "NORMAL": 16,
            "POSITION": 15,
            "TEXCOORD_0": 17,
            "TEXCOORD_1": 18
          },
          "indices": 19,
          "material": 1,
          "mode": 4
        }
      ]
    },
    {
      "name": "Object_4",
      "primitives": [
        {
          "attributes": {
            "NORMAL": 21,
            "POSITION": 20,
            "TEXCOORD_0": 22,
            "TEXCOORD_1": 23
          },
          "indices": 24,
          "material": 1,
          "mode": 4
        }
      ]
    },
    {
      "name": "Object_5",
      "primitives": [
        {
          "attributes": {
            "NORMAL": 26,
            "POSITION": 25,
            "TEXCOORD_0": 27,
            "TEXCOORD_1": 28
          },
          "indices": 29,
          "material": 1,
          "mode": 4
        }
      ]
    }
  ],
  "nodes": [
    {
      "children": [
        1
      ],
      "matrix": [
        1.0,
        0.0,
        0.0,
        0.0,
        0.0,
        2.220446049250313e-16,
        -1.0,
        0.0,
        0.0,
        1.0,
        2.220446049250313e-16,
        0.0,
        0.0,
        0.0,
        0.0,
        1.0
      ],
      "name": "Sketchfab_model"
    },
    {
      "children": [
        2
      ],
      "name": "root"
    },
    {
      "children": [
        3
      ],
      "matrix": [
        1.0,
        0.0,
        0.0,
        0.0,
        0.0,
        2.220446049250313e-16,
        1.0,
        0.0,
        0.0,
        -1.0,
        2.220446049250313e-16,
        0.0,
        0.0,
        0.0,
        0.0,
        1.0
      ],
      "name": "GLTF_SceneRootNode"
    },
    {
      "children": [
        4,
        5,
        6,
        7,
        8,
        9
      ],
      "name": "models/map_objects/ships/tie_bomber_0"
    },
    {
      "mesh": 0,
      "name": "Object_4"
    },
    {
      "mesh": 1,
      "name": "Object_5"
    },
    {
      "mesh": 2,
      "name": "Object_6"
    },
    {
      "mesh": 3,
      "name": "Object_7"
    },
    {
      "mesh": 4,
      "name": "Object_8"
    },
    {
      "mesh": 5,
      "name": "Object_9"
    }
  ],
  "samplers": [
    {
      "magFilter": 9729,
      "minFilter": 9987,
      "wrapS": 10497,
      "wrapT": 10497
    }
  ],
  "scene": 0,
  "scenes": [
    {
      "name": "Sketchfab_Scene",
      "nodes": [
        0
      ]
    }
  ],
  "textures": [
    {
      "sampler": 0,
      "source": 0
    },
    {
      "sampler": 0,
      "source": 1
    },
    {
      "sampler": 0,
      "source": 2
    }
  ]
}
