{
  "accessors": [
    {
      "bufferView": 2,
      "componentType": 5126,
      "count": 11458,
      "max": [
        0.576770007610321,
        0.3953700065612793,
        0.4914099872112274
      ],
      "min": [
        -0.5767599940299988,
        -0.45111000537872314,
        -0.5101900100708008
      ],
      "type": "VEC3"
    },
    {
      "bufferView": 2,
      "byteOffset": 137496,
      "componentType": 5126,
      "count": 11458,
      "max": [
        1.0,
        1.0,
        1.0
      ],
      "min": [
        -1.0,
        -1.0,
        -1.0
      ],
      "type": "VEC3"
    },
    {
      "bufferView": 1,
      "componentType": 5126,
      "count": 11458,
      "max": [
        20.5,
        20.5
      ],
      "min": [
        -19.5,
        -19.5
      ],
      "type": "VEC2"
    },
    {
      "bufferView": 0,
      "componentType": 5125,
      "count": 23124,
      "type": "SCALAR"
    },
    {
      "bufferView": 2,
      "byteOffset": 274992,
      "componentType": 5126,
      "count": 78,
      "max": [
        0.5610600113868713,
        0.35214000940322876,
        0.4828700125217438
      ],
      "min": [
        -0.5610600113868713,
        -0.3751699924468994,
        -0.49164000153541565
      ],
      "type": "VEC3"
    },
    {
      "bufferView": 2,
      "byteOffset": 275928,
      "componentType": 5126,
      "count": 78,
      "max": [
        0.9930763840675354,
        0.0008300028275698423,
        1.0
      ],
      "min": [
        -0.9930763840675354,
        -0.0,
        -0.9187696576118469
      ],
      "type": "VEC3"
    },
    {
      "bufferView": 1,
      "byteOffset": 91664,
      "componentType": 5126,
      "count": 78,
      "max": [
        8.225090026855469,
        10.4964599609375
      ],
      "min": [
        -7.441410064697266,
        -9.4964599609375
      ],
      "type": "VEC2"
    },
    {
      "bufferView": 0,
      "byteOffset": 92496,
      "componentType": 5125,
      "count": 126,
      "type": "SCALAR"
    },
    {
      "bufferView": 2,
      "byteOffset": 276864,
      "componentType": 5126,
      "count": 144,
      "max": [
        0.33643001317977905,
        0.15169000625610352,
        0.34828999638557434
      ],
      "min": [
        -0.33643001317977905,
        -0.44457998871803284,
        -0.24601000547409058
      ],
      "type": "VEC3"
    },
    {
      "bufferView": 2,
      "byteOffset": 278592,
      "componentType": 5126,
      "count": 144,
      "max": [
        0.8660327196121216,
        0.0,
        1.0
      ],
      "min": [
        -0.8660327196121216,
        -1.0,
        -0.49998733401298523
      ],
      "type": "VEC3"
    },
    {
      "bufferView": 1,
      "byteOffset": 92288,
      "componentType": 5126,
      "count": 144,
      "max": [
        -9.5,
        -9.5
      ],
      "min": [
        -9.5,
        -9.5
      ],
      "type": "VEC2"
    },
    {
      "bufferView": 0,
      "byteOffset": 93000,
      "componentType": 5125,
      "count": 378,
      "type": "SCALAR"
    },
    {
      "bufferView": 2,
      "byteOffset": 280320,
      "componentType": 5126,
      "count": 1826,
      "max": [
        0.3381099998950958,
        0.15525999665260315,
        0.3418799936771393
      ],
      "min": [
        -0.3381099998950958,
        -0.478769987821579,
        -0.24769000709056854
      ],
      "type": "VEC3"
    },
    {
      "bufferView": 2,
      "byteOffset": 302232,
      "componentType": 5126,
      "count": 1826,
      "max": [
        1.0,
        1.0,
        1.0
      ],
      "min": [
        -1.0,
        -1.0,
        -1.0
      ],
      "type": "VEC3"
    },
    {
      "bufferView": 1,
      "byteOffset": 93440,
      "componentType": 5126,
      "count": 1826,
      "max": [
        20.48872947692871,
        20.4991397857666
      ],
      "min": [
        -18.67152976989746,
        -19.180400848388672
      ],
      "type": "VEC2"
    },
    {
      "bufferView": 0,
      "byteOffset": 94512,
      "componentType": 5125,
      "count": 3798,
      "type": "SCALAR"
    },
    {
      "bufferView": 2,
      "byteOffset": 324144,
      "componentType": 5126,
      "count": 2100,
      "max": [
        0.1349399983882904,
        0.11014000326395035,
        0.10249999910593033
      ],
      "min": [
        -0.1349399983882904,
        -0.1063700020313263,
        -0.1246500015258789
      ],
      "type": "VEC3"
    },
    {
      "bufferView": 2,
      "byteOffset": 349344,
      "componentType": 5126,
      "count": 2100,
      "max": [
        1.0,
        0.9999688267707825,
        1.0
      ],
      "min": [
        -1.0,
        -1.0,
        -1.0
      ],
      "type": "VEC3"
    },
    {
      "bufferView": 1,
      "byteOffset": 108048,
      "componentType": 5126,
      "count": 2100,
      "max": [
        5.5,
        5.5
      ],
      "min": [
        -4.5,
        -4.5
      ],
      "type": "VEC2"
    },
    {
      "bufferView": 0,
      "byteOffset": 109704,
      "componentType": 5125,
      "count": 6288,
      "type": "SCALAR"
    },
    {
      "bufferView": 2,
      "byteOffset": 374544,
      "componentType": 5126,
      "count": 6571,
      "max": [
        0.14132000505924225,
        0.21389999985694885,
        0.13773000240325928
      ],
      "min": [
        -0.14132000505924225,
        -0.10704000294208527,
        -0.13675999641418457
      ],
      "type": "VEC3"
    },
    {
      "bufferView": 2,
      "byteOffset": 453396,
      "componentType": 5126,
      "count": 6571,
      "max": [
        1.0,
        1.0,
        1.0
      ],
      "min": [
        -1.0,
        -1.0,
        -1.0
      ],
      "type": "VEC3"
    },
    {
      "bufferView": 1,
      "byteOffset": 124848,
      "componentType": 5126,
      "count": 6571,
      "max": [
        5.5,
        5.5
      ],
      "min": [
        -4.5,
        -4.5
      ],
      "type": "VEC2"
    },
    {
      "bufferView": 0,
      "byteOffset": 134856,
      "componentType": 5125,
      "count": 16374,
      "type": "SCALAR"
    },
    {
      "bufferView": 2,
      "byteOffset": 532248,
      "componentType": 5126,
      "count": 104,
      "max": [
        0.04323999956250191,
        0.07361000031232834,
        0.13199999928474426
      ],
      "min": [
        -0.04323999956250191,
        -0.02208000048995018,
        0.11063999682664871
      ],
      "type": "VEC3"
    },
    {
      "bufferView": 2,
      "byteOffset": 533496,
      "componentType": 5126,
      "count": 104,
      "max": [
        0.38136711716651917,
        0.4527851641178131,
        0.9951873421669006
      ],
      "min": [
        -0.38136711716651917,
        -0.20524194836616516,
        0.8809773921966553
      ],
      "type": "VEC3"
    },
    {
      "bufferView": 1,
      "byteOffset": 177416,
      "componentType": 5126,
      "count": 104,
      "max": [
        5.198770046234131,
        4.361989974975586
      ],
      "min": [
        5.029170036315918,
        1.1559300422668457
      ],
      "type": "VEC2"
    },
    {
      "bufferView": 0,
      "byteOffset": 200352,
      "componentType": 5125,
      "count": 312,
      "type": "SCALAR"
    },
    {
      "bufferView": 2,
      "byteOffset": 534744,
      "componentType": 5126,
      "count": 1838,
      "max": [
        0.059870000928640366,
        0.20136000216007233,
        0.10380999743938446
      ],
      "min": [
        -0.059870000928640366,
        -0.15039999783039093,
        -0.10995999723672867
      ],
      "type": "VEC3"
    },
    {
      "bufferView": 2,
      "byteOffset": 556800,
      "componentType": 5126,
      "count": 1838,
      "max": [
        1.0,
        1.0,
        1.0
      ],
      "min": [
        -1.0,
        -1.0,
        -1.0
      ],
      "type": "VEC3"
    },
    {
      "bufferView": 1,
      "byteOffset": 178248,
      "componentType": 5126,
      "count": 1838,
      "max": [
        5.475910186767578,
        5.482120037078857
      ],
      "min": [
        -4.477129936218262,
        -3.6044600009918213
      ],
      "type": "VEC2"
    },
    {
      "bufferView": 0,
      "byteOffset": 201600,
      "componentType": 5125,
      "count": 4392,
      "type": "SCALAR"
    },
    {
      "bufferView": 2,
      "byteOffset": 578856,
      "componentType": 5126,
      "count": 120,
      "max": [
        0.07147999852895737,
        0.028999999165534973,
        0.008949999697506428
      ],
      "min": [
        -0.07147999852895737,
        -0.00558000011369586,
        -0.008949999697506428
      ],
      "type": "VEC3"
    },
    {
      "bufferView": 2,
      "byteOffset": 580296,
      "componentType": 5126,
      "count": 120,
      "max": [
        1.0,
        0.10425355285406113,
        1.0
      ],
      "min": [
        -1.0,
        0.0,
        -1.0
      ],
      "type": "VEC3"
    },
    {
      "bufferView": 1,
      "byteOffset": 192952,
      "componentType": 5126,
      "count": 120,
      "max": [
        1.0,
        0.7221400141716003
      ],
      "min": [
        0.0,
        0.0
      ],
      "type": "VEC2"
    },
    {
      "bufferView": 0,
      "byteOffset": 219168,
      "componentType": 5125,
      "count": 384,
      "type": "SCALAR"
    },
    {
      "bufferView": 2,
      "byteOffset": 581736,
      "componentType": 5126,
      "count": 32,
      "max": [
        0.06966999918222427,
        0.028999999165534973,
        0.007139999885112047
      ],
      "min": [
        -0.06966999918222427,
        0.028999999165534973,
        -0.007139999885112047
      ],
      "type": "VEC3"
    },
    {
      "bufferView": 2,
      "byteOffset": 582120,
      "componentType": 5126,
      "count": 32,
      "max": [
        0.0,
        1.0,
        0.0
      ],
      "min": [
        0.0,
        1.0,
        0.0
      ],
      "type": "VEC3"
    },
    {
      "bufferView": 1,
      "byteOffset": 193912,
      "componentType": 5126,
      "count": 32,
      "max": [
        0.832360029220581,
        1.0
      ],
      "min": [
        0.5515000224113464,
        0.7123600244522095
      ],
      "type": "VEC2"
    },
    {
      "bufferView": 0,
      "byteOffset": 220704,
      "componentType": 5125,
      "count": 84,
      "type": "SCALAR"
    },
    {
      "bufferView": 2,
      "byteOffset": 582504,
      "componentType": 5126,
      "count": 80,
      "max": [
        0.07692000269889832,
        -0.21432000398635864,
        0.011490000411868095
      ],
      "min": [
        -0.07692000269889832,
        -0.24642999470233917,
        -0.14473000168800354
      ],
      "type": "VEC3"
    },
    {
      "bufferView": 2,
      "byteOffset": 583464,
      "componentType": 5126,
      "count": 80,
      "max": [
        0.521655797958374,
        -0.8420793414115906,
        0.5135779976844788
      ],
      "min": [
        -0.521655797958374,
        -1.0,
        -0.5135779976844788
      ],
      "type": "VEC3"
    },
    {
      "bufferView": 1,
      "byteOffset": 194168,
      "componentType": 5126,
      "count": 80,
      "max": [
        1.0,
        1.0
      ],
      "min": [
        0.0,
        0.0
      ],
      "type": "VEC2"
    },
    {
      "bufferView": 0,
      "byteOffset": 221040,
      "componentType": 5125,
      "count": 186,
      "type": "SCALAR"
    },
    {
      "bufferView": 2,
      "byteOffset": 584424,
      "componentType": 5126,
      "count": 656,
      "max": [
        0.08376000076532364,
        -0.20979000627994537,
        0.017139999195933342
      ],
      "min": [
        -0.08376000076532364,
        -0.2476699948310852,
        -0.1503800004720688
      ],
      "type": "VEC3"
    },
    {
      "bufferView": 2,
      "byteOffset": 592296,
      "componentType": 5126,
      "count": 656,
      "max": [
        1.0,
        0.4920104146003723,
        1.0
      ],
      "min": [
        -1.0,
        -1.0,
        -1.0
      ],
      "type": "VEC3"
    },
    {
      "bufferView": 1,
      "byteOffset": 194808,
      "componentType": 5126,
      "count": 656,
      "max": [
        1.0,
        1.0
      ],
      "min": [
        0.0,
        0.0
      ],
      "type": "VEC2"
    },
    {
      "bufferView": 0,
      "byteOffset": 221784,
      "componentType": 5125,
      "count": 1416,
      "type": "SCALAR"
    }
  ],
  "asset": {
    "extras": {
      "author": "Daniel (https://sketchfab.com/DanielAndersson)",
      "license": "CC-BY-4.0 (http://creativecommons.org/licenses/by/4.0/)",
      "source": "https://sketchfab.com/3d-models/star-wars-tied-defender-22bc65f9eb4640b6ae58b1b5e184e80e",
      "title": "Star Wars: TIE/d Defender"
    },
    "generator": "Sketchfab-15.10.0",
    "version": "2.0"
  },
  "bufferViews": [
    {
      "buffer": 0,
      "byteLength": 227448,
      "name": "floatBufferViews",
      "target": 34963
    },
    {
      "buffer": 0,
      "byteLength": 200056,
      "byteOffset": 227448,
      "byteStride": 8,
      "name": "floatBufferViews",
      "target": 34962
    },
    {
      "buffer": 0,
      "byteLength": 600168,
      "byteOffset": 427504,
      "byteStride": 12,
      "name": "floatBufferViews",
      "target": 34962
    }
  ],
  "buffers": [
    {
      "byteLength": 1027672,
      "uri": "scene.bin"
    }
  ],
  "extensionsUsed": [
    "KHR_materials_specular",
    "KHR_materials_emissive_strength"
  ],
  "images": [
    {
      "uri": "textures/ScratchedMetal_baseColor.jpeg"
    },
    {
      "uri": "textures/ScratchedMetal_metallicRoughness.png"
    },
    {
      "uri": "textures/TieWingMesh_baseColor.jpeg"
    },
    {
      "uri": "textures/TieWingMesh_metallicRoughness.png"
    }
  ],
  "materials": [
    {
      "doubleSided": true,
      "name": "ScratchedMetal",
      "pbrMetallicRoughness": {
        "baseColorTexture": {
          "index": 0
        },
        "metallicRoughnessTexture": {
          "index": 1
        },
        "roughnessFactor": 0.4
      }
    },
    {
      "doubleSided": true,
      "extensions": {
        "KHR_materials_specular": {
          "specularColorFactor": [
            1.0,
            1.0,
            1.0
          ],
          "specularFactor": 0.1
        }
      },
      "name": "TieWingMesh",
      "pbrMetallicRoughness": {
        "baseColorTexture": {
          "index": 2
        },
        "metallicRoughnessTexture": {
          "index": 3
        },
        "roughnessFactor": 0.19999999999999996
      }
    },
    {
      "doubleSided": true,
      "name": "Dark",
      "pbrMetallicRoughness": {
        "baseColorFactor": [
          0.0,
          0.0,
          0.0,
          1.0
        ],
        "metallicFactor": 0.0,
        "roughnessFactor": 0.0
      }
    },
    {
      "doubleSided": true,
      "name": "ScratchedMetalDark",
      "pbrMetallicRoughness": {
        "baseColorFactor": [
          0.1,
          0.1,
          0.1,
          1.0
        ],
        "baseColorTexture": {
          "index": 0
        },
        "metallicRoughnessTexture": {
          "index": 1
        },
        "roughnessFactor": 0.4
      }
    },
    {
      "doubleSided": true,
      "name": "ReflectiveGlass",
      "pbrMetallicRoughness": {
        "baseColorFactor": [
          0.005572829799999992,
          0.0005228050000000002,
          0.0005228050000000002,
          1.0
        ],
        "roughnessFactor": 0.3
      }
    },
    {
      "doubleSided": true,
      "emissiveFactor": [
        0.8000000714999995,
        0.010434423599999994,
        0.031041925800000057
      ],
      "extensions": {
        "KHR_materials_emissive_strength": {
          "emissiveStrength": 10.0
        }
      },
      "name": "RedEngineGlow",
      "pbrMetallicRoughness": {
        "baseColorFactor": [
          1.0,
          0.0,
          0.0,
          1.0
        ],
        "roughnessFactor": 0.6
      }
    }
  ],
  "meshes": [
    {
      "name": "ArmsAndWings_0",
      "primitives": [
        {
          "attributes": {
            "NORMAL": 1,
            "POSITION": 0,
            "TEXCOORD_0": 2
          },
          "indices": 3,
          "material": 0,
          "mode": 4
        }
      ]
    },
    {
      "name": "ArmsAndWings_1",
      "primitives": [
        {
          "attributes": {
            "NORMAL": 5,
            "POSITION": 4,
            "TEXCOORD_0": 6
          },
          "indices": 7,
          "material": 1,
          "mode": 4
        }
      ]
    },
    {
      "name": "ArmsAndWings_2",
      "primitives": [
        {
          "attributes": {
            "NORMAL": 9,
            "POSITION": 8,
            "TEXCOORD_0": 10
          },
          "indices": 11,
          "material": 2,
          "mode": 4
        }
      ]
    },
    {
      "name": "ArmsAndWings_3",
      "primitives": [
        {
          "attributes": {
            "NORMAL": 13,
            "POSITION": 12,
            "TEXCOORD_0": 14
          },
          "indices": 15,
          "material": 3,
          "mode": 4
        }
      ]
    },
    {
      "name": "HullPlates_0",
      "primitives": [
        {
          "attributes": {
            "NORMAL": 17,
            "POSITION": 16,
            "TEXCOORD_0": 18
          },
          "indices": 19,
          "material": 0,
          "mode": 4
        }
      ]
    },
    {
      "name": "MainHull_0",
      "primitives": [
        {
          "attributes": {
            "NORMAL": 21,
            "POSITION": 20,
            "TEXCOORD_0": 22
          },
          "indices": 23,
          "material": 0,
          "mode": 4
        }
      ]
    },
    {
      "name": "MainHull_1",
      "primitives": [
        {
          "attributes": {
            "NORMAL": 25,
            "POSITION": 24,
            "TEXCOORD_0": 26
          },
          "indices": 27,
          "material": 4,
          "mode": 4
        }
      ]
    },
    {
      "name": "MainHull_2",
      "primitives": [
        {
          "attributes": {
            "NORMAL": 29,
            "POSITION": 28,
            "TEXCOORD_0": 30
          },
          "indices": 31,
          "material": 3,
          "mode": 4
        }
      ]
    },
    {
      "name": "Engines_0",
      "primitives": [
        {
          "attributes": {
            "NORMAL": 33,
            "POSITION": 32,
            "TEXCOORD_0": 34
          },
          "indices": 35,
          "material": 0,
          "mode": 4
        }
      ]
    },
    {
      "name": "Engines_1",
      "primitives": [
        {
          "attributes": {
            "NORMAL": 37,
            "POSITION": 36,
            "TEXCOORD_0": 38
          },
          "indices": 39,
          "material": 5,
          "mode": 4
        }
      ]
    },
    {
      "name": "Window_0",
      "primitives": [
        {
          "attributes": {
            "NORMAL": 41,
            "POSITION": 40,
            "TEXCOORD_0": 42
          },
          "indices": 43,
          "material": 4,
          "mode": 4
        }
      ]
    },
    {
      "name": "Window_1",
      "primitives": [
        {
          "attributes": {
            "NORMAL": 45,
            "POSITION": 44,
            "TEXCOORD_0": 46
          },
          "indices": 47,
          "material": 3,
          "mode": 4
        }
      ]
    }
  ],
  "nodes": [
    {
      "children": [
        1
      ],
      "matrix": [
        10.0,
        0.0,
        0.0,
        0.0,
        0.0,
        2.220446049250313e-15,
        -10.0,
        0.0,
        0.0,
        10.0,
        2.220446049250313e-15,
        0.0,
        0.0,
        0.0,
        0.0,
        1.0
      ],
      "name": "Sketchfab_model"
    },
    {
      "children": [
        2
      ],
      "name": "Root"
    },
    {
      "children": [
        3,
        8,
        10,
        14,
        17
      ],
      "name": "TieDefender"
    },
    {
      "children": [
        4,
        5,
        6,
        7
      ],
      "name": "ArmsAndWings"
    },
    {
      "mesh": 0,
      "name": "ArmsAndWings_0"
    },
    {
      "mesh": 1,
      "name": "ArmsAndWings_1"
    },
    {
      "mesh": 2,
      "name": "ArmsAndWings_2"
    },
    {
      "mesh": 3,
      "name": "ArmsAndWings_3"
    },
    {
      "children": [
        9
      ],
      "name": "HullPlates"
    },
    {
      "mesh": 4,
      "name": "HullPlates_0"
    },
    {
      "children": [
        11,
        12,
        13
      ],
      "name": "MainHull"
    },
    {
      "mesh": 5,
      "name": "MainHull_0"
    },
    {
      "mesh": 6,
      "name": "MainHull_1"
    },
    {
      "mesh": 7,
      "name": "MainHull_2"
    },
    {
      "children": [
        15,
        16
      ],
      "matrix": [
        1.0,
        0.0,
        0.0,
        0.0,
        0.0,
        1.0,
        0.0,
        0.0,
        0.0,
        0.0,
        1.0,
        0.0,
        0.0,
        0.18419000000000002,
        0.0,
        1.0
      ],
      "name": "Engines"
    },
    {
      "mesh": 8,
      "name": "Engines_0"
    },
    {
      "mesh": 9,
      "name": "Engines_1"
    },
    {
      "children": [
        18,
        19
      ],
      "matrix": [
        1.0,
        0.0,
        0.0,
        0.0,
        0.0,
        1.0,
        0.0,
        0.0,
        0.0,
        0.0,
        1.0,
        0.0,
        0.0,
        0.10986000000000001,
        0.06662000000000003,
        1.0
      ],
      "name": "Window"
    },
    {
      "mesh": 10,
      "name": "Window_0"
    },
    {
      "mesh": 11,
      "name": "Window_1"
    }
  ],
  "samplers": [
    {
      "magFilter": 9729,
      "minFilter": 9987,
      "wrapS": 10497,
      "wrapT": 10497
    }
  ],
  "scene": 0,
  "scenes": [
    {
      "name": "Sketchfab_Scene",
      "nodes": [
        0
      ]
    }
  ],
  "textures": [
    {
      "sampler": 0,
      "source": 0
    },
    {
      "sampler": 0,
      "source": 1
    },
    {
      "sampler": 0,
      "source": 2
    },
    {
      "sampler": 0,
      "source": 3
    }
  ]
}
