{
  "accessors": [
    {
      "bufferView": 2,
      "componentType": 5126,
      "count": 16104,
      "max": [
        137.5684051513672,
        485.7033996582031,
        86.9384994506836
      ],
      "min": [
        -136.8740997314453,
        -322.9093017578125,
        -76.91310119628906
      ],
      "type": "VEC3"
    },
    {
      "bufferView": 2,
      "byteOffset": 193248,
      "componentType": 5126,
      "count": 16104,
      "max": [
        1.0,
        1.0,
        1.0
      ],
      "min": [
        -1.0,
        -1.0,
        -1.0
      ],
      "type": "VEC3"
    },
    {
      "bufferView": 1,
      "componentType": 5126,
      "count": 16104,
      "max": [
        0.9922000169754028,
        0.9922000169754028
      ],
      "min": [
        -0.9990000128746033,
        -0.9990000128746033
      ],
      "type": "VEC2"
    },
    {
      "bufferView": 0,
      "componentType": 5125,
      "count": 30876,
      "type": "SCALAR"
    },
    {
      "bufferView": 2,
      "byteOffset": 386496,
      "componentType": 5126,
      "count": 245,
      "max": [
        97.8042984008789,
        -39.40999984741211,
        26.303699493408203
      ],
      "min": [
        -96.99440002441406,
        -82.88529968261719,
        -16.51689910888672
      ],
      "type": "VEC3"
    },
    {
      "bufferView": 2,
      "byteOffset": 389436,
      "componentType": 5126,
      "count": 245,
      "max": [
        1.0,
        0.9993903636932373,
        0.997487485408783
      ],
      "min": [
        -0.9999991059303284,
        -0.9994968771934509,
        -0.9975978136062622
      ],
      "type": "VEC3"
    },
    {
      "bufferView": 1,
      "byteOffset": 128832,
      "componentType": 5126,
      "count": 245,
      "max": [
        1.0,
        1.0
      ],
      "min": [
        0.0,
        0.0
      ],
      "type": "VEC2"
    },
    {
      "bufferView": 0,
      "byteOffset": 123504,
      "componentType": 5125,
      "count": 999,
      "type": "SCALAR"
    },
    {
      "bufferView": 2,
      "byteOffset": 392376,
      "componentType": 5126,
      "count": 134,
      "max": [
        81.22570037841797,
        465.647705078125,
        8.581399917602539
      ],
      "min": [
        -80.9490966796875,
        132.83580017089844,
        5.807600021362305
      ],
      "type": "VEC3"
    },
    {
      "bufferView": 2,
      "byteOffset": 393984,
      "componentType": 5126,
      "count": 134,
      "max": [
        1.0,
        0.9954932332038879,
        0.9922786951065063
      ],
      "min": [
        -1.0,
        -0.9956979155540466,
        -0.9935001134872437
      ],
      "type": "VEC3"
    },
    {
      "bufferView": 1,
      "byteOffset": 130792,
      "componentType": 5126,
      "count": 134,
      "max": [
        0.9434000253677368,
        0.4643999934196472
      ],
      "min": [
        0.5746999979019165,
        0.09030000120401382
      ],
      "type": "VEC2"
    },
    {
      "bufferView": 0,
      "byteOffset": 127500,
      "componentType": 5125,
      "count": 480,
      "type": "SCALAR"
    },
    {
      "bufferView": 2,
      "byteOffset": 395592,
      "componentType": 5126,
      "count": 1390,
      "max": [
        98.51219940185547,
        -41.62200164794922,
        24.536800384521484
      ],
      "min": [
        -97.64320373535156,
        -80.70279693603516,
        -14.540900230407715
      ],
      "type": "VEC3"
    },
    {
      "bufferView": 2,
      "byteOffset": 412272,
      "componentType": 5126,
      "count": 1390,
      "max": [
        1.0,
        1.0,
        1.0
      ],
      "min": [
        -1.0,
        -1.0,
        -1.0
      ],
      "type": "VEC3"
    },
    {
      "bufferView": 1,
      "byteOffset": 131864,
      "componentType": 5126,
      "count": 1390,
      "max": [
        4.070300102233887,
        6.089799880981445
      ],
      "min": [
        -3.988300085067749,
        4.546899795532227
      ],
      "type": "VEC2"
    },
    {
      "bufferView": 0,
      "byteOffset": 129420,
      "componentType": 5125,
      "count": 3462,
      "type": "SCALAR"
    },
    {
      "bufferView": 2,
      "byteOffset": 428952,
      "componentType": 5126,
      "count": 8,
      "max": [
        103.1592025756836,
        -59.45140075683594,
        8.33430004119873
      ],
      "min": [
        -103.22979736328125,
        -61.44599914550781,
        -0.1525000035762787
      ],
      "type": "VEC3"
    },
    {
      "bufferView": 2,
      "byteOffset": 429048,
      "componentType": 5126,
      "count": 8,
      "max": [
        0.1088230311870575,
        -0.9940410256385803,
        -0.0044944449327886105
      ],
      "min": [
        -0.10891386866569519,
        -0.9940510392189026,
        -0.004508319776505232
      ],
      "type": "VEC3"
    },
    {
      "bufferView": 1,
      "byteOffset": 142984,
      "componentType": 5126,
      "count": 8,
      "max": [
        0.2498999983072281,
        0.0
      ],
      "min": [
        9.999999747378752e-05,
        -0.25
      ],
      "type": "VEC2"
    },
    {
      "bufferView": 0,
      "byteOffset": 143268,
      "componentType": 5125,
      "count": 12,
      "type": "SCALAR"
    },
    {
      "bufferView": 2,
      "byteOffset": 429144,
      "componentType": 5126,
      "count": 560,
      "max": [
        79.04290008544922,
        465.647705078125,
        71.71900177001953
      ],
      "min": [
        -78.7073974609375,
        132.83580017089844,
        -62.05070114135742
      ],
      "type": "VEC3"
    },
    {
      "bufferView": 2,
      "byteOffset": 435864,
      "componentType": 5126,
      "count": 560,
      "max": [
        1.0,
        0.9954933524131775,
        1.0
      ],
      "min": [
        -1.0,
        -0.9954975843429565,
        -1.0
      ],
      "type": "VEC3"
    },
    {
      "bufferView": 1,
      "byteOffset": 143048,
      "componentType": 5126,
      "count": 560,
      "max": [
        0.875,
        1.0
      ],
      "min": [
        -3.2558999061584473,
        -4.968800067901611
      ],
      "type": "VEC2"
    },
    {
      "bufferView": 1,
      "byteOffset": 147528,
      "componentType": 5126,
      "count": 560,
      "max": [
        0.875,
        1.0
      ],
      "min": [
        -3.2558999061584473,
        -4.968800067901611
      ],
      "type": "VEC2"
    },
    {
      "bufferView": 1,
      "byteOffset": 152008,
      "componentType": 5126,
      "count": 560,
      "max": [
        0.875,
        1.0
      ],
      "min": [
        -3.2558999061584473,
        -4.968800067901611
      ],
      "type": "VEC2"
    },
    {
      "bufferView": 0,
      "byteOffset": 143316,
      "componentType": 5125,
      "count": 1464,
      "type": "SCALAR"
    },
    {
      "bufferView": 2,
      "byteOffset": 442584,
      "componentType": 5126,
      "count": 14704,
      "max": [
        137.45030212402344,
        484.7594909667969,
        106.63790130615234
      ],
      "min": [
        -136.6381072998047,
        -389.6839904785156,
        -75.37930297851563
      ],
      "type": "VEC3"
    },
    {
      "bufferView": 2,
      "byteOffset": 619032,
      "componentType": 5126,
      "count": 14704,
      "max": [
        1.0,
        1.0,
        1.0
      ],
      "min": [
        -1.0,
        -1.0,
        -1.0
      ],
      "type": "VEC3"
    },
    {
      "bufferView": 1,
      "byteOffset": 156488,
      "componentType": 5126,
      "count": 14704,
      "max": [
        0.9965999722480774,
        0.9984999895095825
      ],
      "min": [
        -6.128900051116943,
        -8.03909969329834
      ],
      "type": "VEC2"
    },
    {
      "bufferView": 1,
      "byteOffset": 274120,
      "componentType": 5126,
      "count": 14704,
      "max": [
        0.9965999722480774,
        0.9984999895095825
      ],
      "min": [
        -6.128900051116943,
        -8.03909969329834
      ],
      "type": "VEC2"
    },
    {
      "bufferView": 1,
      "byteOffset": 391752,
      "componentType": 5126,
      "count": 14704,
      "max": [
        0.9965999722480774,
        0.9984999895095825
      ],
      "min": [
        -6.128900051116943,
        -8.03909969329834
      ],
      "type": "VEC2"
    },
    {
      "bufferView": 0,
      "byteOffset": 149172,
      "componentType": 5125,
      "count": 38961,
      "type": "SCALAR"
    },
    {
      "bufferView": 2,
      "byteOffset": 795480,
      "componentType": 5126,
      "count": 1244,
      "max": [
        10.48390007019043,
        312.55218505859375,
        74.06649780273438
      ],
      "min": [
        -16.14259910583496,
        275.856201171875,
        -63.907901763916016
      ],
      "type": "VEC3"
    },
    {
      "bufferView": 2,
      "byteOffset": 810408,
      "componentType": 5126,
      "count": 1244,
      "max": [
        1.0,
        0.9986500144004822,
        1.0
      ],
      "min": [
        -1.0,
        -0.9986510872840881,
        -1.0
      ],
      "type": "VEC3"
    },
    {
      "bufferView": 1,
      "byteOffset": 509384,
      "componentType": 5126,
      "count": 1244,
      "max": [
        0.4950999915599823,
        1.4350999593734741
      ],
      "min": [
        0.007499999832361937,
        -2.8573999404907227
      ],
      "type": "VEC2"
    },
    {
      "bufferView": 0,
      "byteOffset": 305016,
      "componentType": 5125,
      "count": 3732,
      "type": "SCALAR"
    },
    {
      "bufferView": 2,
      "byteOffset": 825336,
      "componentType": 5126,
      "count": 176,
      "max": [
        4.151700019836426,
        300.8612060546875,
        74.35040283203125
      ],
      "min": [
        -4.509300231933594,
        287.560302734375,
        -64.19349670410156
      ],
      "type": "VEC3"
    },
    {
      "bufferView": 2,
      "byteOffset": 827448,
      "componentType": 5126,
      "count": 176,
      "max": [
        0.9998383522033691,
        1.0,
        0.9998391270637512
      ],
      "min": [
        -0.9998383522033691,
        -1.0,
        -0.9998391270637512
      ],
      "type": "VEC3"
    },
    {
      "bufferView": 1,
      "byteOffset": 519336,
      "componentType": 5126,
      "count": 176,
      "max": [
        5.785200119018555,
        2.698199987411499
      ],
      "min": [
        0.5098000168800354,
        0.7544000148773193
      ],
      "type": "VEC2"
    },
    {
      "bufferView": 1,
      "byteOffset": 520744,
      "componentType": 5126,
      "count": 176,
      "max": [
        5.785200119018555,
        2.698199987411499
      ],
      "min": [
        0.5098000168800354,
        0.7544000148773193
      ],
      "type": "VEC2"
    },
    {
      "bufferView": 1,
      "byteOffset": 522152,
      "componentType": 5126,
      "count": 176,
      "max": [
        5.785200119018555,
        2.698199987411499
      ],
      "min": [
        0.5098000168800354,
        0.7544000148773193
      ],
      "type": "VEC2"
    },
    {
      "bufferView": 0,
      "byteOffset": 319944,
      "componentType": 5125,
      "count": 300,
      "type": "SCALAR"
    },
    {
      "bufferView": 2,
      "byteOffset": 829560,
      "componentType": 5126,
      "count": 430,
      "max": [
        79.51490020751953,
        187.57699584960938,
        11.38290023803711
      ],
      "min": [
        -78.35369873046875,
        132.1269989013672,
        -3.8368000984191895
      ],
      "type": "VEC3"
    },
    {
      "bufferView": 2,
      "byteOffset": 834720,
      "componentType": 5126,
      "count": 430,
      "max": [
        1.0,
        1.0,
        1.0
      ],
      "min": [
        -1.0,
        -1.0,
        -1.0
      ],
      "type": "VEC3"
    },
    {
      "bufferView": 1,
      "byteOffset": 523560,
      "componentType": 5126,
      "count": 430,
      "max": [
        0.9937000274658203,
        0.8427000045776367
      ],
      "min": [
        0.0,
        0.0
      ],
      "type": "VEC2"
    },
    {
      "bufferView": 0,
      "byteOffset": 321144,
      "componentType": 5125,
      "count": 1056,
      "type": "SCALAR"
    }
  ],
  "asset": {
    "extras": {
      "author": "Corellian Engineering Corporation (https://sketchfab.com/142058)",
      "license": "CC-BY-4.0 (http://creativecommons.org/licenses/by/4.0/)",
      "source": "https://sketchfab.com/3d-models/cr90-corvette-9f2ed40ba421486691bcea470ec80085",
      "title": "cr90_corvette"
    },
    "generator": "Sketchfab-15.10.0",
    "version": "2.0"
  },
  "bufferViews": [
    {
      "buffer": 0,
      "byteLength": 325368,
      "name": "floatBufferViews",
      "target": 34963
    },
    {
      "buffer": 0,
      "byteLength": 527000,
      "byteOffset": 325368,
      "byteStride": 8,
      "name": "floatBufferViews",
      "target": 34962
    },
    {
      "buffer": 0,
      "byteLength": 839880,
      "byteOffset": 852368,
      "byteStride": 12,
      "name": "floatBufferViews",
      "target": 34962
    }
  ],
  "buffers": [
    {
      "byteLength": 1692248,
      "uri": "scene.bin"
    }
  ],
  "images": [
    {
      "uri": "textures/98f08065_dds_baseColor.png"
    },
    {
      "uri": "textures/3617dd96_dds_baseColor.png"
    },
    {
      "uri": "textures/77ca768c_dds_baseColor.png"
    },
    {
      "uri": "textures/c12fcc1f_dds_baseColor.png"
    },
    {
      "uri": "textures/619c0415_dds_baseColor.png"
    },
    {
      "uri": "textures/619c0415_dds_emissive.png"
    },
    {
      "uri": "textures/49a0a6e9_dds_baseColor.png"
    },
    {
      "uri": "textures/a91f0c9a_dds_baseColor.png"
    },
    {
      "uri": "textures/a91f0c9a_dds_emissive.png"
    },
    {
      "uri": "textures/dfde4f30_dds_baseColor.png"
    }
  ],
  "materials": [
    {
      "doubleSided": true,
      "name": "98f08065_dds",
      "pbrMetallicRoughness": {
        "baseColorTexture": {
          "index": 0
        },
        "roughnessFactor": 0.6
      }
    },
    {
      "doubleSided": true,
      "name": "3617dd96_dds",
      "pbrMetallicRoughness": {
        "baseColorTexture": {
          "index": 1
        },
        "roughnessFactor": 0.6
      }
    },
    {
      "doubleSided": true,
      "emissiveFactor": [
        1.0,
        1.0,
        1.0
      ],
      "name": "77ca768c_dds",
      "pbrMetallicRoughness": {
        "baseColorTexture": {
          "index": 2
        },
        "metallicFactor": 0.0,
        "roughnessFactor": 0.6
      }
    },
    {
      "doubleSided": true,
      "name": "c12fcc1f_dds",
      "pbrMetallicRoughness": {
        "baseColorTexture": {
          "index": 3
        },
        "roughnessFactor": 0.6
      }
    },
    {
      "alphaMode": "BLEND",
      "doubleSided": true,
      "name": "2c9697e9_dds",
      "pbrMetallicRoughness": {
        "baseColorFactor": [
          0.0,
          0.0,
          0.0,
          0.0
        ],
        "metallicFactor": 0.0,
        "roughnessFactor": 0.6
      }
    },
    {
      "doubleSided": true,
      "emissiveFactor": [
        1.0,
        1.0,
        1.0
      ],
      "emissiveTexture": {
        "index": 5
      },
      "name": "619c0415_dds",
      "pbrMetallicRoughness": {
        "baseColorTexture": {
          "index": 4
        },
        "roughnessFactor": 0.6
      }
    },
    {
      "doubleSided": true,
      "name": "49a0a6e9_dds",
      "pbrMetallicRoughness": {
        "baseColorTexture": {
          "index": 6
        },
        "roughnessFactor": 0.6
      }
    },
    {
      "alphaMode": "BLEND",
      "doubleSided": true,
      "emissiveFactor": [
        1.0,
        1.0,
        1.0
      ],
      "emissiveTexture": {
        "index": 8
      },
      "name": "a91f0c9a_dds",
      "pbrMetallicRoughness": {
        "baseColorFactor": [
          1.0,
          1.0,
          1.0,
          0.0143411
        ],
        "baseColorTexture": {
          "index": 7
        },
        "metallicFactor": 0.0,
        "roughnessFactor": 0.6
      }
    },
    {
      "doubleSided": true,
      "name": "dfde4f30_dds",
      "pbrMetallicRoughness": {
        "baseColorTexture": {
          "index": 9
        },
        "roughnessFactor": 0.6
      }
    }
  ],
  "meshes": [
    {
      "name": "Object_0",
      "primitives": [
        {
          "attributes": {
            "NORMAL": 1,
            "POSITION": 0,
            "TEXCOORD_0": 2
          },
          "indices": 3,
          "material": 0,
          "mode": 4
        }
      ]
    },
    {
      "name": "Object_1",
      "primitives": [
        {
          "attributes": {
            "NORMAL": 5,
            "POSITION": 4,
            "TEXCOORD_0": 6
          },
          "indices": 7,
          "material": 1,
          "mode": 4
        }
      ]
    },
    {
      "name": "Object_2",
      "primitives": [
        {
          "attributes": {
            "NORMAL": 9,
            "POSITION": 8,
            "TEXCOORD_0": 10
          },
          "indices": 11,
          "material": 2,
          "mode": 4
        }
      ]
    },
    {
      "name": "Object_3",
      "primitives": [
        {
          "attributes": {
            "NORMAL": 13,
            "POSITION": 12,
            "TEXCOORD_0": 14
          },
          "indices": 15,
          "material": 3,
          "mode": 4
        }
      ]
    },
    {
      "name": "Object_4",
      "primitives": [
        {
          "attributes": {
            "NORMAL": 17,
            "POSITION": 16,
            "TEXCOORD_0": 18
          },
          "indices": 19,
          "material": 4,
          "mode": 4
        }
      ]
    },
    {
      "name": "Object_5",
      "primitives": [
        {
          "attributes": {
            "NORMAL": 21,
            "POSITION": 20,
            "TEXCOORD_0": 22,
            "TEXCOORD_1": 23,
            "TEXCOORD_2": 24
          },
          "indices": 25,
          "material": 5,
          "mode": 4
        }
      ]
    },
    {
      "name": "Object_6",
      "primitives": [
        {
          "attributes": {
            "NORMAL": 27,
            "POSITION": 26,
            "TEXCOORD_0": 28,
            "TEXCOORD_1": 29,
            "TEXCOORD_2": 30
          },
          "indices": 31,
          "material": 5,
          "mode": 4
        }
      ]
    },
    {
      "name": "Object_7",
      "primitives": [
        {
          "attributes": {
            "NORMAL": 33,
            "POSITION": 32,
            "TEXCOORD_0": 34
          },
          "indices": 35,
          "material": 6,
          "mode": 4
        }
      ]
    },
    {
      "name": "Object_8",
      "primitives": [
        {
          "attributes": {
            "NORMAL": 37,
            "POSITION": 36,
            "TEXCOORD_0": 38,
            "TEXCOORD_1": 39,
            "TEXCOORD_2": 40
          },
          "indices": 41,
          "material": 7,
          "mode": 4
        }
      ]
    },
    {
      "name": "Object_9",
      "primitives": [
        {
          "attributes": {
            "NORMAL": 43,
            "POSITION": 42,
            "TEXCOORD_0": 44
          },
          "indices": 45,
          "material": 8,
          "mode": 4
        }
      ]
    }
  ],
  "nodes": [
    {
      "children": [
        1
      ],
      "matrix": [
        1.0,
        0.0,
        0.0,
        0.0,
        0.0,
        2.220446049250313e-16,
        -1.0,
        0.0,
        0.0,
        1.0,
        2.220446049250313e-16,
        0.0,
        0.0,
        0.0,
        0.0,
        1.0
      ],
      "name": "Sketchfab_model"
    },
    {
      "children": [
        2
      ],
      "name": "root"
    },
    {
      "children": [
        3
      ],
      "matrix": [
        1.0,
        0.0,
        0.0,
        0.0,
        0.0,
        2.220446049250313e-16,
        1.0,
        0.0,
        0.0,
        -1.0,
        2.220446049250313e-16,
        0.0,
        0.0,
        0.0,
        0.0,
        1.0
      ],
      "name": "GLTF_SceneRootNode"
    },
    {
      "children": [
        4
      ],
      "matrix": [
        1.0,
        0.0,
        0.0,
        0.0,
        0.0,
        2.220446049250313e-16,
        -1.0,
        0.0,
        0.0,
        1.0,
        2.220446049250313e-16,
        0.0,
        0.0,
        0.0,
        0.0,
        1.0
      ],
      "name": "Sketchfab_model_0"
    },
    {
      "children": [
        5
      ],
      "name": "root_1"
    },
    {
      "children": [
        6
      ],
      "matrix": [
        1.0,
        0.0,
        0.0,
        0.0,
        0.0,
        2.220446049250313e-16,
        1.0,
        0.0,
        0.0,
        -1.0,
        2.220446049250313e-16,
        0.0,
        0.0,
        0.0,
        0.0,
        1.0
      ],
      "name": "GLTF_SceneRootNode_2"
    },
    {
      "children": [
        7
      ],
      "matrix": [
        1.0,
        0.0,
        0.0,
        0.0,
        0.0,
        2.220446049250313e-16,
        -1.0,
        0.0,
        0.0,
        1.0,
        2.220446049250313e-16,
        0.0,
        0.0,
        0.0,
        0.0,
        1.0
      ],
      "name": "Sketchfab_model_0_3"
    },
    {
      "children": [
        8,
        11,
        14,
        17,
        20,
        23,
        26,
        29,
        32,
        35
      ],
      "name": "CR90 corvette.obj.cleaner.materialmerger.gles_1_4"
    },
    {
      "children": [
        9
      ],
      "name": "Object_2_2_5"
    },
    {
      "children": [
        10
      ],
      "name": "Object_6_6"
    },
    {
      "mesh": 0,
      "name": "Object_10"
    },
    {
      "children": [
        12
      ],
      "name": "Object_3_3_7"
    },
    {
      "children": [
        13
      ],
      "name": "Object_8_8"
    },
    {
      "mesh": 1,
      "name": "Object_13"
    },
    {
      "children": [
        15
      ],
      "name": "Object_4_4_9"
    },
    {
      "children": [
        16
      ],
      "name": "Object_10_10"
    },
    {
      "mesh": 2,
      "name": "Object_16"
    },
    {
      "children": [
        18
      ],
      "name": "Object_5_5_11"
    },
    {
      "children": [
        19
      ],
      "name": "Object_12_12"
    },
    {
      "mesh": 3,
      "name": "Object_19"
    },
    {
      "children": [
        21
      ],
      "name": "Object_6_6_13"
    },
    {
      "children": [
        22
      ],
      "name": "Object_14_14"
    },
    {
      "mesh": 4,
      "name": "Object_22"
    },
    {
      "children": [
        24
      ],
      "name": "Object_7_7_15"
    },
    {
      "children": [
        25
      ],
      "name": "Object_16_16"
    },
    {
      "mesh": 5,
      "name": "Object_25"
    },
    {
      "children": [
        27
      ],
      "name": "Object_8_8_17"
    },
    {
      "children": [
        28
      ],
      "name": "Object_18_18"
    },
    {
      "mesh": 6,
      "name": "Object_28"
    },
    {
      "children": [
        30
      ],
      "name": "Object_9_9_19"
    },
    {
      "children": [
        31
      ],
      "name": "Object_20_20"
    },
    {
      "mesh": 7,
      "name": "Object_31"
    },
    {
      "children": [
        33
      ],
      "name": "Object_10_10_21"
    },
    {
      "children": [
        34
      ],
      "name": "Object_22_22"
    },
    {
      "mesh": 8,
      "name": "Object_34"
    },
    {
      "children": [
        36
      ],
      "name": "Object_11_11_23"
    },
    {
      "children": [
        37
      ],
      "name": "Object_24_24"
    },
    {
      "mesh": 9,
      "name": "Object_37"
    }
  ],
  "samplers": [
    {
      "magFilter": 9729,
      "minFilter": 9987,
      "wrapS": 10497,
      "wrapT": 10497
    }
  ],
  "scene": 0,
  "scenes": [
    {
      "name": "Sketchfab_Scene",
      "nodes": [
        0
      ]
    }
  ],
  "textures": [
    {
      "sampler": 0,
      "source": 0
    },
    {
      "sampler": 0,
      "source": 1
    },
    {
      "sampler": 0,
      "source": 2
    },
    {
      "sampler": 0,
      "source": 3
    },
    {
      "sampler": 0,
      "source": 4
    },
    {
      "sampler": 0,
      "source": 5
    },
    {
      "sampler": 0,
      "source": 6
    },
    {
      "sampler": 0,
      "source": 7
    },
    {
      "sampler": 0,
      "source": 8
    },
    {
      "sampler": 0,
      "source": 9
    }
  ]
}
